<?xml version="1.0" standalone="no"?>
<!DOCTYPE svg PUBLIC "-//W3C//DTD SVG 20010904//EN"
 "http://www.w3.org/TR/2001/REC-SVG-20010904/DTD/svg10.dtd">
<svg version="1.0" xmlns="http://www.w3.org/2000/svg"
 width="500.000000pt" height="500.000000pt" viewBox="0 0 500.000000 500.000000"
 preserveAspectRatio="xMidYMid meet">

<g transform="translate(0.000000,500.000000) scale(0.100000,-0.100000)"
fill="#000000" stroke="none">
<path d="M0 2500 l0 -2500 2500 0 2500 0 0 2500 0 2500 -2500 0 -2500 0 0
-2500z m1240 98 l-1 -33 -15 28 c-12 21 -22 27 -49 27 -34 0 -35 -1 -35 -40 0
-39 1 -40 38 -42 l37 -1 -37 -4 c-38 -4 -38 -5 -38 -49 0 -44 0 -44 35 -44 27
0 37 6 49 28 l15 27 1 -32 0 -33 -82 1 c-46 1 -75 3 -65 6 15 4 17 17 17 93 0
76 -2 89 -17 93 -10 3 19 5 65 6 l82 1 0 -32z m280 -3 l-1 -30 -20 28 c-27 35
-80 38 -103 5 -22 -30 -21 -116 1 -140 25 -28 77 -24 102 10 l20 27 1 -30 c0
-29 -1 -30 -56 -33 -69 -4 -99 14 -115 67 -9 32 -9 47 1 71 20 47 46 61 113
58 56 -3 57 -3 57 -33z m260 3 l-1 -33 -15 28 c-8 15 -23 27 -34 27 -18 0 -20
-7 -20 -89 0 -77 2 -90 18 -94 9 -3 -5 -5 -33 -5 -27 0 -42 2 -32 5 15 4 17
17 17 94 0 99 -11 112 -49 62 l-20 -28 -1 33 0 32 85 0 85 0 0 -32z m257 17
c26 -18 43 -71 36 -109 -15 -75 -109 -102 -164 -47 -63 63 -20 171 68 171 21
0 48 -7 60 -15z m281 -1 c28 -19 29 -58 1 -77 l-21 -15 24 -41 c12 -22 30 -42
38 -45 8 -3 2 -4 -15 -3 -24 2 -34 10 -53 45 -32 57 -62 58 -62 3 0 -29 5 -41
18 -44 9 -3 -3 -5 -28 -5 -25 0 -37 2 -27 5 15 4 17 17 17 93 0 76 -2 89 -17
93 -10 3 9 5 42 6 40 1 68 -4 83 -15z m442 -18 l0 -29 -21 27 c-36 46 -100 30
-115 -30 -8 -31 1 -91 17 -110 20 -24 75 -17 98 12 l21 27 0 -29 c0 -28 -2
-29 -55 -32 -50 -3 -58 0 -85 27 -24 23 -30 38 -30 71 0 33 6 48 30 71 27 27
35 30 85 27 53 -3 55 -4 55 -32z m163 27 c-9 -3 -13 -30 -13 -83 0 -84 6 -95
55 -103 27 -4 27 -4 -7 -6 -61 -2 -78 23 -78 113 0 63 -3 75 -17 79 -10 3 2 5
27 5 25 0 39 -2 33 -5z m125 0 c-15 -4 -18 -16 -18 -77 0 -49 -5 -78 -15 -92
-14 -18 -14 -17 -5 9 5 16 10 57 10 92 0 52 -3 64 -17 68 -10 3 0 5 22 5 22 0
32 -2 23 -5z m189 -68 c32 -41 61 -74 66 -75 4 0 7 31 7 69 0 58 -3 70 -17 74
-10 3 -2 5 17 5 19 0 29 -2 23 -5 -9 -3 -13 -33 -13 -99 0 -52 -4 -94 -9 -94
-5 0 -35 33 -66 73 -32 39 -62 76 -67 82 -4 5 -8 -25 -8 -67 0 -64 3 -77 18
-81 9 -3 -1 -5 -23 -5 -22 0 -32 2 -22 5 15 4 17 17 17 93 0 76 -2 89 -17 93
-12 3 -8 5 9 6 22 1 37 -12 85 -74z m266 68 c-8 -2 -13 -22 -13 -44 l0 -39 50
0 50 0 0 39 c0 29 -5 41 -17 44 -10 3 2 5 27 5 25 0 39 -2 33 -5 -9 -3 -13
-32 -13 -93 0 -61 4 -90 13 -93 6 -3 -8 -5 -33 -5 -25 0 -37 2 -27 5 13 3 17
15 17 49 l0 44 -50 0 -50 0 0 -44 c0 -26 5 -46 13 -49 6 -3 -8 -5 -33 -5 -25
0 -37 2 -27 5 15 4 17 17 17 93 0 76 -2 89 -17 93 -10 3 2 5 27 5 25 0 39 -2
33 -5z m367 -88 c17 -44 39 -86 47 -92 14 -11 11 -13 -23 -12 -21 0 -34 3 -27
5 8 4 9 13 1 35 -9 25 -15 29 -48 29 -33 0 -39 -4 -48 -29 -8 -22 -7 -31 1
-35 7 -2 -1 -5 -18 -5 -16 0 -25 3 -18 7 6 4 28 49 48 100 21 51 41 90 46 85
4 -4 22 -44 39 -88z m-2022 -270 c-3 -3 -9 2 -12 12 -6 14 -5 15 5 6 7 -7 10
-15 7 -18z m692 -20 c0 -25 -3 -45 -8 -45 -4 0 -6 20 -4 45 2 25 6 45 8 45 2
0 4 -20 4 -45z m140 0 c0 -25 -3 -45 -8 -45 -4 0 -6 20 -4 45 2 25 6 45 8 45
2 0 4 -20 4 -45z m134 -25 l7 -25 -14 25 c-8 14 -17 36 -21 50 l-7 25 14 -25
c8 -14 17 -36 21 -50z m236 25 c0 -25 -3 -45 -8 -45 -4 0 -6 20 -4 45 2 25 6
45 8 45 2 0 4 -20 4 -45z m380 0 c0 -25 -3 -45 -8 -45 -4 0 -6 20 -4 45 2 25
6 45 8 45 2 0 4 -20 4 -45z m120 0 c0 -25 -3 -45 -8 -45 -4 0 -6 20 -4 45 2
25 6 45 8 45 2 0 4 -20 4 -45z m-2135 25 c-3 -5 5 -15 19 -22 27 -11 34 -32
16 -43 -5 -3 -7 0 -4 8 3 8 -6 21 -21 31 -21 14 -27 36 -9 36 3 0 2 -4 -1 -10z
m119 -15 c-4 -15 -1 -32 7 -43 13 -15 12 -16 -3 -3 -18 13 -24 51 -11 64 12
12 13 7 7 -18z m66 -9 c0 -13 -8 -30 -17 -37 -16 -13 -17 -12 -4 3 7 10 11 29
9 43 -3 13 -1 22 3 19 5 -3 9 -16 9 -28z m83 -10 c2 -20 0 -36 -5 -36 -4 0 -8
19 -8 42 0 49 9 46 13 -6z m137 4 c0 -22 -3 -40 -8 -40 -4 0 -6 18 -4 40 2 22
6 40 8 40 2 0 4 -18 4 -40z m118 -35 c0 -5 -6 4 -13 20 -8 17 -14 37 -14 45 0
8 7 -1 14 -20 7 -19 13 -39 13 -45z m41 5 c0 -8 -6 0 -14 19 -8 18 -15 38 -14
45 1 15 28 -46 28 -64z m144 30 c18 -48 8 -54 -13 -7 -7 17 -15 35 -18 40 -2
4 1 7 6 7 5 0 16 -18 25 -40z m97 0 c0 -22 -3 -40 -8 -40 -4 0 -6 18 -4 40 2
22 6 40 8 40 2 0 4 -18 4 -40z m36 14 c-4 -15 -2 -32 5 -40 6 -8 8 -14 4 -14
-19 0 -32 33 -21 56 14 31 20 30 12 -2z m94 -14 c0 -22 -3 -40 -8 -40 -4 0 -6
18 -4 40 2 22 6 40 8 40 2 0 4 -18 4 -40z m243 -12 c-7 -17 -9 -14 -10 18 -1
31 1 35 9 20 6 -11 7 -26 1 -38z m337 12 c0 -22 -3 -40 -8 -40 -4 0 -6 18 -4
40 2 22 6 40 8 40 2 0 4 -18 4 -40z m227 18 c-3 -12 -1 -31 5 -42 10 -20 9
-20 -7 -4 -12 11 -16 24 -11 42 3 14 9 26 12 26 4 0 4 -10 1 -22z m61 -24 c-3
-27 -4 -26 -9 8 -3 22 -1 34 4 29 5 -5 7 -21 5 -37z m86 2 c2 -20 -1 -36 -5
-36 -5 0 -9 19 -9 42 0 49 10 45 14 -6z m46 30 c0 -8 -4 -17 -8 -20 -4 -2 -8
4 -8 15 0 10 4 19 8 19 4 0 8 -6 8 -14z m236 -12 c-4 -15 -2 -32 5 -40 7 -8 7
-14 1 -14 -5 0 -13 7 -16 16 -6 16 2 64 11 64 3 0 2 -12 -1 -26z m-2171 -44
c3 -5 1 -10 -4 -10 -6 0 -11 5 -11 10 0 6 2 10 4 10 3 0 8 -4 11 -10z m975 0
c0 -5 -5 -10 -11 -10 -5 0 -7 5 -4 10 3 6 8 10 11 10 2 0 4 -4 4 -10z m580 0
c0 -5 -5 -10 -11 -10 -5 0 -7 5 -4 10 3 6 8 10 11 10 2 0 4 -4 4 -10z m120 0
c0 -5 -5 -10 -11 -10 -5 0 -7 5 -4 10 3 6 8 10 11 10 2 0 4 -4 4 -10z"/>
<path d="M1930 2605 c-21 -25 -24 -98 -6 -133 14 -27 22 -32 51 -32 44 0 65
29 65 90 0 60 -21 90 -64 90 -19 0 -39 -7 -46 -15z"/>
<path d="M2230 2575 c0 -43 1 -45 28 -45 33 0 52 16 52 45 0 29 -19 45 -52 45
-27 0 -28 -2 -28 -45z"/>
<path d="M3801 2549 c-6 -18 -11 -34 -11 -35 0 -2 14 -4 31 -4 26 0 30 3 24
18 -4 9 -10 25 -12 35 -8 26 -20 21 -32 -14z"/>
</g>
</svg>
